<?xml version="1.0" encoding="utf-8"?>
<!-- Generator: Adobe Illustrator 15.1.0, SVG Export Plug-In . SVG Version: 6.00 Build 0)  -->
<svg version="1.2" baseProfile="tiny" id="Layer_1" xmlns="http://www.w3.org/2000/svg" xmlns:xlink="http://www.w3.org/1999/xlink"
	 x="0px" y="0px" width="595.28px" height="841.89px" viewBox="0 0 595.28 841.89" xml:space="preserve">
<g>
	<path d="M18.696,47.371H4.174c-1.258,0-2.688-0.114-2.688-1.772c0-0.8,0.515-1.315,1.258-1.543
		c2.001-0.629,1.944-0.972,1.944-3.087v-29.96c0-0.857,0.114-2.401-0.972-2.744c-1.144-0.4-2.23-0.572-2.23-2.001
		c0-1.487,1.43-1.658,2.573-1.658h14.637V47.371z M21.269,4.604c9.72-0.114,17.838,6.632,18.524,21.383
		c0.629,13.436-9.034,21.383-18.524,21.383v-3.316c3.488-0.458,3.659-3.717,3.659-5.889V13.809c0-2.173-0.171-5.432-3.659-5.889
		V4.604z"/>
	<path d="M48.139,15.353h0.114l3.202,5.717v17.267c0.915,7.147,4.574,4.917,4.574,7.375c0,1.772-2.344,1.658-2.973,1.658h-6.518
		c-0.629,0-2.973,0.114-2.973-1.658c0-2.458,3.659-0.229,4.574-7.375V15.353z M77.927,33.534v13.836h-8.519L48.481,11.293
		c-0.915-1.601-1.201-2.458-3.087-3.087c-0.972-0.343-1.715-0.572-1.715-1.83c0-1.715,1.715-1.715,2.916-1.772h14.694L77.927,33.534
		z M74.61,14.953c0-8.176-4.688-6.003-4.688-8.633c0-1.601,1.887-1.715,2.459-1.715h7.775c0.572,0,2.458,0.114,2.458,1.715
		c0,2.63-4.688,0.457-4.688,8.633v13.894h-0.115l-3.202-5.775V14.953z"/>
	<path d="M101.651,7.063c-2.173,0.743-4.06,2.344-4.06,4.688c0,2.801,1.544,4.517,8.348,7.146
		c10.12,3.888,12.407,9.262,12.407,14.522c0,8.862-7.375,14.637-15.837,14.808v-3.316c2.745-0.857,5.089-2.116,5.203-5.26
		c0.114-3.602-4.117-5.088-6.861-6.289c-7.204-3.03-13.894-6.289-13.894-15.266c0-8.69,6.289-14.065,14.694-14.351V7.063z
		 M86.957,34.563c0-1.201,0.229-2.802,1.83-2.802c1.144,0,1.944,0.915,2.115,1.887c0.801,4.574,4.002,10.234,9.034,11.263v3.316
		c-4.974-0.114-6.061-2.115-8.119-2.115c-1.83,0-1.658,1.887-3.087,1.887c-1.772,0-1.772-2.115-1.772-2.401V34.563z M116.802,16.096
		c0,1.315-0.229,2.744-1.887,2.744c-1.373,0-1.887-1.086-2.059-2.229c-0.629-4.231-4.174-8.576-8.633-9.548V3.746
		c3.602,0.058,7.433,2.23,8.062,2.23c1.487,0,1.373-2.058,2.859-2.058c1.772,0,1.658,1.944,1.658,2.401V16.096z"/>
</g>
</svg>
